<svg id="Layer_1" data-name="Layer 1" xmlns="http://www.w3.org/2000/svg" viewBox="0 0 713.82 194.46"><defs><style>.cls-1{fill:#fff;}</style></defs><circle class="cls-1" cx="611.1" cy="97.23" r="12.81"/><circle class="cls-1" cx="642.72" cy="115.58" r="12.81"/><circle class="cls-1" cx="642.72" cy="80.76" r="12.81"/><circle class="cls-1" cx="611.1" cy="61.54" r="12.81"/><circle class="cls-1" cx="611.1" cy="132.92" r="12.81"/><circle class="cls-1" cx="580.67" cy="115.58" r="12.81"/><circle class="cls-1" cx="580.67" cy="80.76" r="12.81"/><circle class="cls-1" cx="580.67" cy="187.37" r="7.09"/><circle class="cls-1" cx="580.67" cy="152.52" r="7.09"/><circle class="cls-1" cx="611.1" cy="170.44" r="7.09"/><circle class="cls-1" cx="642.72" cy="152.52" r="7.09"/><circle class="cls-1" cx="675.16" cy="132.92" r="7.09"/><circle class="cls-1" cx="705.13" cy="115.58" r="7.09"/><circle class="cls-1" cx="642.72" cy="187.37" r="7.09"/><circle class="cls-1" cx="675.16" cy="170.44" r="7.09"/><circle class="cls-1" cx="675.16" cy="97.23" r="7.09"/><circle class="cls-1" cx="675.16" cy="61.54" r="7.09"/><circle class="cls-1" cx="706.73" cy="80.76" r="7.09"/><circle class="cls-1" cx="675.16" cy="25.85" r="7.09"/><circle class="cls-1" cx="548.87" cy="132" r="7.09"/><circle class="cls-1" cx="548.87" cy="169.52" r="7.09"/><circle class="cls-1" cx="548.87" cy="96.32" r="7.09"/><circle class="cls-1" cx="548.87" cy="60.63" r="7.09"/><circle class="cls-1" cx="548.87" cy="24.94" r="7.09"/><circle class="cls-1" cx="642.72" cy="43.7" r="7.09"/><circle class="cls-1" cx="642.72" cy="8.01" r="7.09"/><circle class="cls-1" cx="580.67" cy="42.78" r="7.09"/><circle class="cls-1" cx="580.67" cy="7.09" r="7.09"/><circle class="cls-1" cx="517.53" cy="115.08" r="7.09"/><circle class="cls-1" cx="517.53" cy="79.39" r="7.09"/><circle class="cls-1" cx="611.1" cy="24.94" r="7.09"/><polygon class="cls-1" points="12.49 24.44 1.23 24.31 0 130.7 71.53 131.52 71.66 120.34 11.39 119.64 12.49 24.44"/><path class="cls-1" d="M215.55,121.52a37.78,37.78,0,0,1-10.16,26.08c-6.49,7-14.31,10.53-23.25,10.53h-.4c-9.1-.1-17-3.83-23.39-11.08a37.76,37.76,0,0,1-9.56-26.31l.67-58.13-11.26-.12-.67,58.12a48.43,48.43,0,0,0,12.68,34.14c8.55,9.52,19.12,14.42,31.4,14.56h.55c12.06,0,22.55-4.65,31.18-13.83a48.54,48.54,0,0,0,13.48-33.84l.67-58.13-11.27-.14Z" transform="translate(-39.09 -36.97)"/><polygon class="cls-1" points="264.46 86.7 226.09 27.05 214.75 26.92 213.52 133.16 224.79 133.29 225.78 47.34 264.22 107.12 304.11 48.24 303.12 134.2 314.38 134.33 315.61 28.09 304.27 27.95 264.46 86.7"/><rect class="cls-1" x="332.91" y="112.88" width="106.32" height="11.26" transform="translate(224 466.21) rotate(-89.34)"/><polygon class="cls-1" points="461.17 29.62 460.41 95.8 391.65 28.82 379.58 28.68 378.35 135.07 389.61 135.2 390.67 43.44 460.23 111.34 459.94 136.01 471.13 136.14 472.36 29.75 461.17 29.62"/><path class="cls-1" d="M252.14,187.19h5.61c2.64,0,4.54.39,5.72,1.17a4.11,4.11,0,0,1,1.77,3.7,4.22,4.22,0,0,1-1,2.88,4.75,4.75,0,0,1-2.87,1.48v.13q4.51.76,4.52,4.71a5,5,0,0,1-1.8,4.11,7.68,7.68,0,0,1-5,1.48h-6.93Zm2.31,8.42h3.81a6.17,6.17,0,0,0,3.51-.76,2.91,2.91,0,0,0,1.08-2.56,2.59,2.59,0,0,0-1.2-2.39,7.51,7.51,0,0,0-3.8-.73h-3.4Zm0,1.94v7.35h4.14a6,6,0,0,0,3.62-.92,3.39,3.39,0,0,0,1.22-2.88,3,3,0,0,0-1.24-2.69,6.66,6.66,0,0,0-3.79-.86Z" transform="translate(-39.09 -36.97)"/><path class="cls-1" d="M273,206.85V187.19h2.31v19.66Z" transform="translate(-39.09 -36.97)"/><path class="cls-1" d="M300.72,197a10.74,10.74,0,0,1-2.41,7.42,8.52,8.52,0,0,1-6.7,2.7,8.62,8.62,0,0,1-6.77-2.66c-1.59-1.77-2.39-4.26-2.39-7.49s.8-5.68,2.39-7.45a8.7,8.7,0,0,1,6.79-2.64,8.54,8.54,0,0,1,6.69,2.69A10.76,10.76,0,0,1,300.72,197Zm-15.82,0q0,4,1.72,6.05a7,7,0,0,0,10,0c1.12-1.37,1.69-3.39,1.69-6.06s-.56-4.66-1.68-6a6,6,0,0,0-5-2,6.12,6.12,0,0,0-5,2.06A9.16,9.16,0,0,0,284.9,197Z" transform="translate(-39.09 -36.97)"/><path class="cls-1" d="M307.93,206.85V187.19h2.31v19.66Z" transform="translate(-39.09 -36.97)"/><path class="cls-1" d="M334,206.85h-2.64l-10.85-16.5h-.11c.14,1.94.22,3.71.22,5.33v11.17h-2.14V187.19h2.61l10.83,16.44H332c0-.25-.06-1-.13-2.34s-.08-2.25-.06-2.82V187.19H334Z" transform="translate(-39.09 -36.97)"/><path class="cls-1" d="M344.53,206.85h-2.31V187.19h11.07v2h-8.76v7.2h8.23v2h-8.23Z" transform="translate(-39.09 -36.97)"/><path class="cls-1" d="M376.59,197a10.74,10.74,0,0,1-2.41,7.42,8.52,8.52,0,0,1-6.7,2.7,8.62,8.62,0,0,1-6.77-2.66c-1.59-1.77-2.39-4.26-2.39-7.49s.8-5.68,2.39-7.45a8.7,8.7,0,0,1,6.79-2.64,8.54,8.54,0,0,1,6.69,2.69A10.76,10.76,0,0,1,376.59,197Zm-15.82,0q0,4,1.72,6.05a7,7,0,0,0,10,0q1.68-2.06,1.68-6.06c0-2.65-.55-4.66-1.67-6a6,6,0,0,0-5-2,6.12,6.12,0,0,0-5,2.06A9.16,9.16,0,0,0,360.77,197Z" transform="translate(-39.09 -36.97)"/><path class="cls-1" d="M386.11,198.68v8.17H383.8V187.19h5.45q3.64,0,5.39,1.39a5,5,0,0,1,1.75,4.17c0,2.6-1.33,4.35-4,5.27l5.39,8.83h-2.73l-4.81-8.17Zm0-2h3.16a5.52,5.52,0,0,0,3.59-1,3.55,3.55,0,0,0,1.14-2.88,3.27,3.27,0,0,0-1.16-2.81,6.32,6.32,0,0,0-3.73-.86h-3Z" transform="translate(-39.09 -36.97)"/><path class="cls-1" d="M412.56,206.85l-6.73-17.43h-.11c.12,1.38.19,3,.19,4.93v12.5h-2.14V187.19h3.48l6.29,16.22h.11L420,187.19h3.45v19.66h-2.31V194.18c0-1.45.06-3,.19-4.73h-.11l-6.79,17.4Z" transform="translate(-39.09 -36.97)"/><path class="cls-1" d="M444.15,206.85l-2.47-6.25h-8l-2.44,6.25h-2.34l7.85-19.74h1.94l7.81,19.74ZM441,198.54l-2.31-6.09c-.3-.77-.61-1.72-.92-2.84a25.82,25.82,0,0,1-.86,2.84l-2.34,6.09Z" transform="translate(-39.09 -36.97)"/><path class="cls-1" d="M458.16,206.85h-2.3V189.22h-6.29v-2h14.88v2h-6.29Z" transform="translate(-39.09 -36.97)"/><path class="cls-1" d="M470.22,206.85V187.19h2.31v19.66Z" transform="translate(-39.09 -36.97)"/><path class="cls-1" d="M489.26,189a6.54,6.54,0,0,0-5.17,2.16A8.67,8.67,0,0,0,482.2,197a8.89,8.89,0,0,0,1.82,6,6.54,6.54,0,0,0,5.21,2.1,18,18,0,0,0,4.74-.74v2a14.47,14.47,0,0,1-5.09.77,8.69,8.69,0,0,1-6.77-2.63q-2.39-2.64-2.38-7.49a11.79,11.79,0,0,1,1.14-5.33,8.19,8.19,0,0,1,3.32-3.52,10,10,0,0,1,5.1-1.24,12.33,12.33,0,0,1,5.46,1.13l-1,2A10.6,10.6,0,0,0,489.26,189Z" transform="translate(-39.09 -36.97)"/><path class="cls-1" d="M512.29,201.62a4.8,4.8,0,0,1-1.9,4,8.3,8.3,0,0,1-5.16,1.45,13,13,0,0,1-5.43-.9V204a13.79,13.79,0,0,0,2.66.81,13.94,13.94,0,0,0,2.85.3,5.8,5.8,0,0,0,3.48-.87,2.83,2.83,0,0,0,1.17-2.41,3.08,3.08,0,0,0-.42-1.68,4,4,0,0,0-1.38-1.2,19,19,0,0,0-3-1.25,9.57,9.57,0,0,1-4-2.33,5.12,5.12,0,0,1-1.18-3.51,4.36,4.36,0,0,1,1.72-3.62,7.25,7.25,0,0,1,4.56-1.34,13.69,13.69,0,0,1,5.45,1.07l-.72,2a12.43,12.43,0,0,0-4.78-1,4.68,4.68,0,0,0-2.87.78,2.57,2.57,0,0,0-1,2.17,3.3,3.3,0,0,0,.38,1.67,3.48,3.48,0,0,0,1.28,1.2,16.8,16.8,0,0,0,2.77,1.2,11.15,11.15,0,0,1,4.3,2.37A4.64,4.64,0,0,1,512.29,201.62Z" transform="translate(-39.09 -36.97)"/></svg>