<?xml version="1.0" encoding="utf-8"?>
<!-- Generator: Adobe Illustrator 25.4.1, SVG Export Plug-In . SVG Version: 6.00 Build 0)  -->
<svg version="1.1" id="Layer_1" xmlns="http://www.w3.org/2000/svg" xmlns:xlink="http://www.w3.org/1999/xlink" x="0px" y="0px"
	 viewBox="0 0 540 185" style="enable-background:new 0 0 540 185;" xml:space="preserve">
<style type="text/css">
	.st0{fill:#FFFFFF;}
</style>
<g>
	<g>
		<g>
			<g>
				<g>
					<polygon class="st0" points="39.78,19.95 28.52,19.82 27.29,126.2 98.82,127.03 98.95,115.85 38.69,115.15 					"/>
					<path class="st0" d="M203.76,80.05c-0.12,10.17-3.54,18.95-10.16,26.08c-6.49,6.99-14.31,10.53-23.26,10.53
						c-0.13,0-0.26,0-0.39,0c-9.11-0.11-16.98-3.83-23.4-11.08c-6.46-7.29-9.67-16.14-9.56-26.31l0.67-58.13l-11.26-0.13
						l-0.67,58.13c-0.15,13.17,4.12,24.66,12.68,34.14c8.55,9.52,19.12,14.42,31.41,14.56c0.18,0,0.36,0,0.54,0
						c12.06,0,22.55-4.65,31.19-13.83c8.79-9.28,13.32-20.67,13.47-33.84l0.67-58.13l-11.26-0.13L203.76,80.05z"/>
					<polygon class="st0" points="291.75,82.21 253.39,22.56 242.04,22.43 240.81,128.67 252.08,128.8 253.07,42.85 291.51,102.63 
						331.4,43.75 330.41,129.7 341.68,129.84 342.9,23.59 331.56,23.46 					"/>
					
						<rect x="321.11" y="71.42" transform="matrix(0.0116 -0.9999 0.9999 0.0116 292.887 450.4004)" class="st0" width="106.32" height="11.26"/>
					<polygon class="st0" points="488.46,25.13 487.7,91.31 418.95,24.33 406.87,24.19 405.64,130.57 416.91,130.7 417.96,38.95 
						487.52,106.84 487.23,131.52 498.43,131.65 499.65,25.26 					"/>
				</g>
			</g>
		</g>
	</g>
</g>
<g>
	<path class="st0" d="M318.18,166.54h-3.43l-3.27-11.5c-0.14-0.5-0.32-1.22-0.53-2.17c-0.21-0.94-0.34-1.6-0.38-1.97
		c-0.09,0.56-0.23,1.29-0.43,2.19c-0.2,0.9-0.36,1.56-0.49,2l-3.19,11.44h-3.43l-2.49-9.65l-2.53-9.62h3.22l2.76,11.23
		c0.43,1.8,0.74,3.39,0.92,4.77c0.1-0.75,0.24-1.58,0.44-2.5s0.37-1.67,0.53-2.24l3.14-11.26h3.12l3.22,11.31
		c0.31,1.05,0.63,2.61,0.98,4.69c0.13-1.26,0.45-2.86,0.95-4.8l2.74-11.21h3.19L318.18,166.54z"/>
	<path class="st0" d="M345.75,156.87c0,3.14-0.78,5.58-2.35,7.32c-1.57,1.74-3.79,2.61-6.66,2.61c-2.91,0-5.14-0.86-6.7-2.59
		c-1.56-1.73-2.34-4.18-2.34-7.36s0.78-5.62,2.35-7.33c1.57-1.71,3.81-2.56,6.72-2.56c2.87,0,5.08,0.87,6.64,2.6
		S345.75,153.73,345.75,156.87z M331.03,156.87c0,2.37,0.48,4.17,1.44,5.4c0.96,1.23,2.38,1.84,4.26,1.84
		c1.87,0,3.28-0.61,4.24-1.82c0.95-1.21,1.43-3.02,1.43-5.42c0-2.36-0.47-4.16-1.42-5.38s-2.35-1.83-4.23-1.83
		c-1.89,0-3.32,0.61-4.28,1.83C331.52,152.72,331.03,154.51,331.03,156.87z"/>
	<path class="st0" d="M355.74,158.84v7.7h-3.15v-19.27h5.44c2.49,0,4.33,0.47,5.52,1.4s1.79,2.34,1.79,4.22
		c0,2.4-1.25,4.11-3.74,5.13l5.44,8.53h-3.59l-4.61-7.7H355.74z M355.74,156.23h2.19c1.47,0,2.53-0.27,3.19-0.82
		s0.99-1.35,0.99-2.43c0-1.09-0.36-1.87-1.07-2.35s-1.78-0.71-3.22-0.71h-2.08V156.23z"/>
	<path class="st0" d="M387.26,166.54h-3.65l-6.05-8.73l-1.86,1.52v7.21h-3.15v-19.27h3.15v9.2c0.86-1.05,1.72-2.07,2.57-3.05
		l5.21-6.16h3.59c-3.37,3.96-5.78,6.77-7.24,8.45L387.26,166.54z"/>
	<path class="st0" d="M403.61,161.3c0,1.71-0.62,3.06-1.86,4.03s-2.95,1.46-5.13,1.46s-3.96-0.34-5.35-1.02v-2.98
		c0.88,0.41,1.81,0.74,2.8,0.98c0.99,0.24,1.91,0.36,2.76,0.36c1.25,0,2.17-0.24,2.76-0.71c0.59-0.47,0.89-1.11,0.89-1.91
		c0-0.72-0.27-1.33-0.82-1.83s-1.67-1.09-3.38-1.78c-1.76-0.71-3-1.52-3.72-2.44s-1.08-2.01-1.08-3.3c0-1.61,0.57-2.87,1.71-3.8
		s2.68-1.38,4.6-1.38c1.85,0,3.68,0.4,5.51,1.21l-1,2.57c-1.71-0.72-3.24-1.08-4.59-1.08c-1.02,0-1.79,0.22-2.32,0.67
		s-0.79,1.03-0.79,1.76c0,0.5,0.11,0.93,0.32,1.29c0.21,0.36,0.56,0.69,1.04,1.01s1.35,0.73,2.61,1.25
		c1.42,0.59,2.45,1.14,3.11,1.65s1.14,1.09,1.45,1.73S403.61,160.43,403.61,161.3z"/>
	<path class="st0" d="M422.81,153.09c0,2.01-0.66,3.56-1.98,4.63s-3.2,1.61-5.63,1.61h-2v7.21h-3.15v-19.27h5.55
		c2.41,0,4.21,0.49,5.41,1.48C422.21,149.73,422.81,151.18,422.81,153.09z M413.2,156.68h1.67c1.62,0,2.8-0.28,3.56-0.84
		s1.13-1.44,1.13-2.64c0-1.11-0.34-1.93-1.02-2.48s-1.73-0.82-3.16-0.82h-2.19V156.68z"/>
	<path class="st0" d="M441.31,166.54l-1.92-5.35h-7.37l-1.88,5.35h-3.32l7.21-19.35h3.43l7.21,19.35H441.31z M438.56,158.47
		l-1.81-5.25c-0.13-0.35-0.31-0.91-0.55-1.66c-0.23-0.76-0.39-1.31-0.48-1.66c-0.24,1.08-0.58,2.26-1.04,3.55l-1.74,5.02H438.56z"/>
	<path class="st0" d="M458.11,149.69c-1.81,0-3.23,0.64-4.27,1.92s-1.55,3.05-1.55,5.31c0,2.36,0.5,4.15,1.5,5.37
		c1,1.21,2.44,1.82,4.33,1.82c0.82,0,1.61-0.08,2.37-0.24c0.77-0.16,1.56-0.37,2.39-0.63v2.7c-1.51,0.57-3.23,0.86-5.14,0.86
		c-2.82,0-4.99-0.85-6.5-2.56c-1.51-1.71-2.27-4.15-2.27-7.34c0-2,0.37-3.76,1.1-5.26c0.73-1.5,1.79-2.65,3.18-3.45
		s3.02-1.2,4.89-1.2c1.97,0,3.79,0.41,5.46,1.24l-1.13,2.62c-0.65-0.31-1.34-0.58-2.06-0.81
		C459.67,149.81,458.91,149.69,458.11,149.69z"/>
	<path class="st0" d="M480.62,166.54h-10.9v-19.27h10.9v2.66h-7.75v5.25h7.26v2.64h-7.26v6.05h7.75V166.54z"/>
	<path class="st0" d="M498.6,161.3c0,1.71-0.62,3.06-1.86,4.03c-1.24,0.98-2.95,1.46-5.13,1.46s-3.96-0.34-5.35-1.02v-2.98
		c0.88,0.41,1.81,0.74,2.8,0.98c0.99,0.24,1.91,0.36,2.76,0.36c1.25,0,2.17-0.24,2.76-0.71c0.59-0.47,0.89-1.11,0.89-1.91
		c0-0.72-0.27-1.33-0.82-1.83c-0.55-0.5-1.67-1.09-3.38-1.78c-1.76-0.71-3-1.52-3.72-2.44s-1.08-2.01-1.08-3.3
		c0-1.61,0.57-2.87,1.71-3.8s2.68-1.38,4.6-1.38c1.85,0,3.68,0.4,5.51,1.21l-1,2.57c-1.71-0.72-3.24-1.08-4.59-1.08
		c-1.02,0-1.79,0.22-2.32,0.67s-0.79,1.03-0.79,1.76c0,0.5,0.11,0.93,0.32,1.29c0.21,0.36,0.56,0.69,1.04,1.01
		c0.48,0.32,1.35,0.73,2.61,1.25c1.42,0.59,2.45,1.14,3.11,1.65c0.66,0.51,1.14,1.09,1.45,1.73
		C498.45,159.68,498.6,160.43,498.6,161.3z"/>
</g>
</svg>
