<?xml version="1.0" encoding="utf-8"?>
<!-- Generator: Adobe Illustrator 26.0.1, SVG Export Plug-In . SVG Version: 6.00 Build 0)  -->
<svg version="1.1" id="Layer_1" xmlns="http://www.w3.org/2000/svg" xmlns:xlink="http://www.w3.org/1999/xlink" x="0px" y="0px"
	 viewBox="0 0 766 234" style="enable-background:new 0 0 766 234;" xml:space="preserve">
<style type="text/css">
	.st0{fill:#013F59;}
	.st1{fill:#23BDBF;}
	.st2{fill:#17254F;}
	.st3{fill:#2E8496;}
</style>
<g>
	<g>
		<path class="st0" d="M245.6,188.1h5.7c2.6,0,4.5,0.4,5.7,1.1c1.2,0.8,1.8,2,1.8,3.6c0,1.1-0.3,2-0.9,2.8c-0.6,0.7-1.4,1.2-2.5,1.4
			v0.1c1.3,0.3,2.3,0.7,3,1.5c0.6,0.7,1,1.7,1,3c0,1.7-0.6,3-1.8,4c-1.2,1-2.9,1.4-5,1.4h-6.9V188.1z M248.7,195.9h3
			c1.3,0,2.3-0.2,2.9-0.6c0.6-0.4,0.9-1.1,0.9-2.1c0-0.9-0.3-1.5-1-1.9c-0.7-0.4-1.7-0.6-3.1-0.6h-2.7V195.9z M248.7,198.4v6h3.3
			c1.3,0,2.3-0.2,3-0.7c0.7-0.5,1-1.3,1-2.4c0-1-0.3-1.7-1-2.2c-0.7-0.5-1.7-0.7-3.1-0.7H248.7z"/>
		<path class="st0" d="M266,207v-19h3.1v19H266z"/>
		<path class="st0" d="M293.9,197.5c0,3.1-0.8,5.5-2.3,7.2c-1.6,1.7-3.8,2.6-6.6,2.6c-2.9,0-5.1-0.9-6.7-2.6
			c-1.6-1.7-2.3-4.1-2.3-7.2c0-3.1,0.8-5.5,2.3-7.2c1.6-1.7,3.8-2.5,6.7-2.5c2.8,0,5.1,0.9,6.6,2.6
			C293.1,192,293.9,194.4,293.9,197.5z M279.2,197.5c0,2.3,0.5,4.1,1.4,5.3s2.4,1.8,4.2,1.8c1.9,0,3.3-0.6,4.2-1.8s1.4-3,1.4-5.3
			c0-2.3-0.5-4.1-1.4-5.3c-0.9-1.2-2.3-1.8-4.2-1.8c-1.9,0-3.3,0.6-4.3,1.8C279.7,193.4,279.2,195.2,279.2,197.5z"/>
		<path class="st0" d="M300.7,207v-19h3.1v19H300.7z"/>
		<path class="st0" d="M327.5,207h-3.8l-9.4-15.1h-0.1l0.1,0.8c0.1,1.6,0.2,3.1,0.2,4.4v9.9h-2.8v-19h3.8l9.4,15h0.1
			c0-0.2-0.1-0.9-0.1-2.2c-0.1-1.2-0.1-2.2-0.1-2.9v-9.9h2.9V207z"/>
		<path class="st0" d="M338.4,207h-3.1v-19h10.8v2.6h-7.7v5.9h7.2v2.6h-7.2V207z"/>
		<path class="st0" d="M369.2,197.5c0,3.1-0.8,5.5-2.3,7.2c-1.6,1.7-3.8,2.6-6.6,2.6c-2.9,0-5.1-0.9-6.7-2.6
			c-1.6-1.7-2.3-4.1-2.3-7.2c0-3.1,0.8-5.5,2.3-7.2c1.6-1.7,3.8-2.5,6.7-2.5c2.8,0,5.1,0.9,6.6,2.6
			C368.5,192,369.2,194.4,369.2,197.5z M354.6,197.5c0,2.3,0.5,4.1,1.4,5.3s2.4,1.8,4.2,1.8c1.9,0,3.3-0.6,4.2-1.8s1.4-3,1.4-5.3
			c0-2.3-0.5-4.1-1.4-5.3c-0.9-1.2-2.3-1.8-4.2-1.8c-1.9,0-3.3,0.6-4.3,1.8C355.1,193.4,354.6,195.2,354.6,197.5z"/>
		<path class="st0" d="M379.2,199.4v7.6H376v-19h5.4c2.5,0,4.3,0.5,5.5,1.4c1.2,0.9,1.8,2.3,1.8,4.2c0,2.4-1.2,4-3.7,5l5.4,8.4h-3.6
			l-4.6-7.6H379.2z M379.2,196.9h2.2c1.5,0,2.5-0.3,3.2-0.8s1-1.3,1-2.4c0-1.1-0.4-1.8-1.1-2.3c-0.7-0.5-1.8-0.7-3.2-0.7h-2.1V196.9
			z"/>
		<path class="st0" d="M404.2,207l-5.6-15.8h-0.1c0.1,2.4,0.2,4.6,0.2,6.6v9.2h-2.8v-19h4.4l5.3,15.1h0.1l5.5-15.1h4.4v19h-3v-9.4
			c0-0.9,0-2.2,0.1-3.7c0-1.5,0.1-2.4,0.1-2.8h-0.1l-5.8,15.8H404.2z"/>
		<path class="st0" d="M435.2,207l-1.9-5.3H426l-1.9,5.3h-3.3L428,188h3.4l7.2,19.1H435.2z M432.5,199.1l-1.8-5.2
			c-0.1-0.3-0.3-0.9-0.5-1.6s-0.4-1.3-0.5-1.6c-0.2,1.1-0.6,2.2-1,3.5l-1.7,4.9H432.5z"/>
		<path class="st0" d="M450.4,207h-3.1v-16.3h-5.6v-2.7H456v2.7h-5.6V207z"/>
		<path class="st0" d="M461.7,207v-19h3.1v19H461.7z"/>
		<path class="st0" d="M480.7,190.4c-1.8,0-3.2,0.6-4.2,1.9s-1.5,3-1.5,5.2c0,2.3,0.5,4.1,1.5,5.3c1,1.2,2.4,1.8,4.3,1.8
			c0.8,0,1.6-0.1,2.4-0.2c0.8-0.2,1.6-0.4,2.4-0.6v2.7c-1.5,0.6-3.2,0.8-5.1,0.8c-2.8,0-5-0.8-6.5-2.5c-1.5-1.7-2.3-4.1-2.3-7.2
			c0-2,0.4-3.7,1.1-5.2c0.7-1.5,1.8-2.6,3.2-3.4s3-1.2,4.9-1.2c2,0,3.8,0.4,5.4,1.2l-1.1,2.6c-0.6-0.3-1.3-0.6-2.1-0.8
			C482.2,190.6,481.5,190.4,480.7,190.4z"/>
		<path class="st0" d="M503.3,201.9c0,1.7-0.6,3-1.8,4c-1.2,1-2.9,1.4-5.1,1.4c-2.2,0-3.9-0.3-5.3-1v-2.9c0.9,0.4,1.8,0.7,2.8,1
			s1.9,0.4,2.7,0.4c1.2,0,2.2-0.2,2.7-0.7c0.6-0.5,0.9-1.1,0.9-1.9c0-0.7-0.3-1.3-0.8-1.8s-1.7-1.1-3.4-1.8c-1.7-0.7-3-1.5-3.7-2.4
			c-0.7-0.9-1.1-2-1.1-3.2c0-1.6,0.6-2.8,1.7-3.7c1.1-0.9,2.7-1.4,4.6-1.4c1.8,0,3.7,0.4,5.5,1.2l-1,2.5c-1.7-0.7-3.2-1.1-4.6-1.1
			c-1,0-1.8,0.2-2.3,0.7c-0.5,0.4-0.8,1-0.8,1.7c0,0.5,0.1,0.9,0.3,1.3s0.6,0.7,1,1c0.5,0.3,1.3,0.7,2.6,1.2
			c1.4,0.6,2.4,1.1,3.1,1.6c0.7,0.5,1.1,1.1,1.4,1.7S503.3,201,503.3,201.9z"/>
	</g>
	<g>
		<g>
			<polygon class="st1" points="43.8,57 32.5,56.9 31.3,163.5 102.9,164.3 103.1,153.1 42.7,152.4 			"/>
			<path class="st1" d="M208,117.2c-0.1,10.2-3.5,19-10.2,26.1c-6.5,7-14.3,10.6-23.3,10.6c-0.1,0-0.3,0-0.4,0
				c-9.1-0.1-17-3.8-23.4-11.1c-6.5-7.3-9.7-16.2-9.6-26.4l0.7-58.2l-11.3-0.1l-0.7,58.2c-0.2,13.2,4.1,24.7,12.7,34.2
				c8.6,9.5,19.2,14.4,31.5,14.6c0.2,0,0.4,0,0.5,0c12.1,0,22.6-4.7,31.2-13.9c8.8-9.3,13.3-20.7,13.5-33.9l0.7-58.2L208.7,59
				L208,117.2z"/>
			<polygon class="st1" points="296.2,119.4 257.8,59.6 246.4,59.5 245.2,165.9 256.5,166.1 257.4,79.9 296,139.8 335.9,80.8 
				334.9,167 346.2,167.1 347.4,60.7 336.1,60.5 			"/>
			
				<rect x="325.6" y="108.6" transform="matrix(1.160098e-02 -0.9999 0.9999 1.160098e-02 260.271 491.7252)" class="st1" width="106.5" height="11.3"/>
			<polygon class="st1" points="493.3,62.2 492.5,128.5 423.6,61.4 411.5,61.3 410.3,167.8 421.6,168 422.6,76 492.3,144.1 
				492,168.8 503.2,168.9 504.5,62.3 			"/>
		</g>
		<g>
			<circle class="st1" cx="641.9" cy="112.9" r="12.8"/>
			<circle class="st1" cx="673.6" cy="131.2" r="12.8"/>
			<circle class="st1" cx="673.6" cy="96.4" r="12.8"/>
			<circle class="st1" cx="641.9" cy="77.2" r="12.8"/>
			<circle class="st1" cx="641.9" cy="148.6" r="12.8"/>
			<circle class="st1" cx="611.5" cy="131.2" r="12.8"/>
			<circle class="st1" cx="611.5" cy="96.4" r="12.8"/>
			<circle class="st2" cx="611.5" cy="203" r="7.1"/>
			<circle class="st3" cx="611.5" cy="168.2" r="7.1"/>
			<circle class="st3" cx="641.9" cy="186.1" r="7.1"/>
			<circle class="st3" cx="673.6" cy="168.2" r="7.1"/>
			<circle class="st3" cx="706" cy="148.6" r="7.1"/>
			<circle class="st2" cx="736" cy="131.2" r="7.1"/>
			<circle class="st2" cx="673.6" cy="203" r="7.1"/>
			<circle class="st2" cx="706" cy="186.1" r="7.1"/>
			<circle class="st3" cx="706" cy="112.9" r="7.1"/>
			<circle class="st3" cx="706" cy="77.2" r="7.1"/>
			<circle class="st2" cx="737.6" cy="96.4" r="7.1"/>
			<circle class="st2" cx="706" cy="41.5" r="7.1"/>
			<circle class="st3" cx="579.7" cy="147.7" r="7.1"/>
			<circle class="st2" cx="579.7" cy="185.2" r="7.1"/>
			<circle class="st3" cx="579.7" cy="112" r="7.1"/>
			<circle class="st3" cx="579.7" cy="76.3" r="7.1"/>
			<circle class="st2" cx="579.7" cy="40.6" r="7.1"/>
			<circle class="st3" cx="673.6" cy="59.4" r="7.1"/>
			<circle class="st2" cx="673.6" cy="23.7" r="7.1"/>
			<circle class="st3" cx="611.5" cy="58.4" r="7.1"/>
			<circle class="st2" cx="611.5" cy="22.8" r="7.1"/>
			<circle class="st2" cx="548.4" cy="130.7" r="7.1"/>
			<circle class="st2" cx="548.4" cy="95" r="7.1"/>
			<circle class="st3" cx="641.9" cy="40.6" r="7.1"/>
		</g>
	</g>
</g>
</svg>
